<mxfile host="app.diagrams.net" agent="Mozilla/5.0 (Windows NT 10.0; Win64; x64) AppleWebKit/537.36 (KHTML, like Gecko) Chrome/132.0.0.0 Safari/537.36 OPR/117.0.0.0" version="26.2.14">
  <diagram name="Page-1" id="hApwtr5XjZGW2BrEILN4">
    <mxGraphModel dx="1048" dy="1785" grid="1" gridSize="10" guides="1" tooltips="1" connect="1" arrows="1" fold="1" page="1" pageScale="1" pageWidth="827" pageHeight="1169" math="0" shadow="0">
      <root>
        <mxCell id="0" />
        <mxCell id="1" parent="0" />
        <mxCell id="y51s2Xlw9aO2Pa95HNBr-2" value="Utilisateur" style="shape=umlActor;verticalLabelPosition=bottom;verticalAlign=top;html=1;outlineConnect=0;" vertex="1" parent="1">
          <mxGeometry x="120" y="250" width="30" height="60" as="geometry" />
        </mxCell>
        <mxCell id="y51s2Xlw9aO2Pa95HNBr-6" value="" style="rounded=0;whiteSpace=wrap;html=1;" vertex="1" parent="1">
          <mxGeometry x="240" y="-30" width="800" height="750" as="geometry" />
        </mxCell>
        <mxCell id="y51s2Xlw9aO2Pa95HNBr-7" value="&lt;font style=&quot;font-size: 26px;&quot;&gt;Projet CYnapse&lt;/font&gt;" style="text;html=1;align=center;verticalAlign=middle;resizable=0;points=[];autosize=1;strokeColor=none;fillColor=none;" vertex="1" parent="1">
          <mxGeometry x="535" y="-30" width="210" height="40" as="geometry" />
        </mxCell>
        <mxCell id="y51s2Xlw9aO2Pa95HNBr-8" value="Générer un labyrinthe" style="ellipse;whiteSpace=wrap;html=1;" vertex="1" parent="1">
          <mxGeometry x="330" y="180" width="140" height="50" as="geometry" />
        </mxCell>
        <mxCell id="y51s2Xlw9aO2Pa95HNBr-9" value="" style="endArrow=none;html=1;rounded=0;" edge="1" parent="1" source="y51s2Xlw9aO2Pa95HNBr-2" target="y51s2Xlw9aO2Pa95HNBr-8">
          <mxGeometry width="50" height="50" relative="1" as="geometry">
            <mxPoint x="580" y="330" as="sourcePoint" />
            <mxPoint x="630" y="280" as="targetPoint" />
          </mxGeometry>
        </mxCell>
        <mxCell id="y51s2Xlw9aO2Pa95HNBr-10" value="Charger un labyrinthe&lt;div&gt;&lt;b&gt;extension point: &lt;/b&gt;verification_fichier {après sélection d&#39;un fichier}&lt;/div&gt;" style="ellipse;whiteSpace=wrap;html=1;" vertex="1" parent="1">
          <mxGeometry x="500" y="270" width="140" height="100" as="geometry" />
        </mxCell>
        <mxCell id="y51s2Xlw9aO2Pa95HNBr-11" value="" style="endArrow=none;html=1;rounded=0;" edge="1" parent="1" source="y51s2Xlw9aO2Pa95HNBr-2" target="y51s2Xlw9aO2Pa95HNBr-10">
          <mxGeometry width="50" height="50" relative="1" as="geometry">
            <mxPoint x="220" y="274" as="sourcePoint" />
            <mxPoint x="328" y="159" as="targetPoint" />
          </mxGeometry>
        </mxCell>
        <mxCell id="y51s2Xlw9aO2Pa95HNBr-12" value="Résoudre le labyrinthe" style="ellipse;whiteSpace=wrap;html=1;" vertex="1" parent="1">
          <mxGeometry x="370" y="550" width="140" height="50" as="geometry" />
        </mxCell>
        <mxCell id="y51s2Xlw9aO2Pa95HNBr-13" value="" style="endArrow=none;html=1;rounded=0;" edge="1" parent="1" source="y51s2Xlw9aO2Pa95HNBr-2" target="y51s2Xlw9aO2Pa95HNBr-12">
          <mxGeometry width="50" height="50" relative="1" as="geometry">
            <mxPoint x="480" y="290" as="sourcePoint" />
            <mxPoint x="530" y="240" as="targetPoint" />
          </mxGeometry>
        </mxCell>
        <mxCell id="y51s2Xlw9aO2Pa95HNBr-14" value="Afficher le labyrinthe" style="ellipse;whiteSpace=wrap;html=1;" vertex="1" parent="1">
          <mxGeometry x="670" y="220" width="140" height="50" as="geometry" />
        </mxCell>
        <mxCell id="y51s2Xlw9aO2Pa95HNBr-15" value="Choisir taille du labyrinthe" style="ellipse;whiteSpace=wrap;html=1;" vertex="1" parent="1">
          <mxGeometry x="330" y="30" width="140" height="50" as="geometry" />
        </mxCell>
        <mxCell id="y51s2Xlw9aO2Pa95HNBr-16" value="Choisir méthode&lt;div&gt;de résolution&lt;/div&gt;" style="ellipse;whiteSpace=wrap;html=1;" vertex="1" parent="1">
          <mxGeometry x="590" y="630" width="140" height="50" as="geometry" />
        </mxCell>
        <mxCell id="y51s2Xlw9aO2Pa95HNBr-18" value="Vérifier validité du fichier" style="ellipse;whiteSpace=wrap;html=1;" vertex="1" parent="1">
          <mxGeometry x="655" y="390" width="140" height="50" as="geometry" />
        </mxCell>
        <mxCell id="y51s2Xlw9aO2Pa95HNBr-19" value="&amp;lt;&amp;lt;extends&amp;gt;&amp;gt;" style="endArrow=open;startArrow=none;endFill=0;startFill=0;endSize=8;html=1;verticalAlign=bottom;dashed=1;labelBackgroundColor=none;rounded=0;" edge="1" parent="1" source="y51s2Xlw9aO2Pa95HNBr-18" target="y51s2Xlw9aO2Pa95HNBr-10">
          <mxGeometry width="160" relative="1" as="geometry">
            <mxPoint x="570" y="525" as="sourcePoint" />
            <mxPoint x="470" y="525" as="targetPoint" />
          </mxGeometry>
        </mxCell>
        <mxCell id="y51s2Xlw9aO2Pa95HNBr-20" value="" style="endArrow=none;dashed=1;html=1;rounded=0;" edge="1" parent="1" source="y51s2Xlw9aO2Pa95HNBr-23" target="y51s2Xlw9aO2Pa95HNBr-18">
          <mxGeometry width="50" height="50" relative="1" as="geometry">
            <mxPoint x="590" y="385.52631578947376" as="sourcePoint" />
            <mxPoint x="630" y="410" as="targetPoint" />
          </mxGeometry>
        </mxCell>
        <mxCell id="y51s2Xlw9aO2Pa95HNBr-23" value="Condition : si Fichier sélectionner&lt;br&gt;extension point : verification_fichier" style="shape=note2;boundedLbl=1;whiteSpace=wrap;html=1;size=25;verticalAlign=top;align=center;" vertex="1" parent="1">
          <mxGeometry x="750" y="290" width="200" height="60" as="geometry" />
        </mxCell>
        <mxCell id="y51s2Xlw9aO2Pa95HNBr-24" value="" style="endArrow=none;html=1;rounded=0;entryX=0.036;entryY=0.356;entryDx=0;entryDy=0;entryPerimeter=0;exitX=0.962;exitY=0.352;exitDx=0;exitDy=0;exitPerimeter=0;" edge="1" parent="1" source="y51s2Xlw9aO2Pa95HNBr-10" target="y51s2Xlw9aO2Pa95HNBr-10">
          <mxGeometry width="50" height="50" relative="1" as="geometry">
            <mxPoint x="150" y="430" as="sourcePoint" />
            <mxPoint x="200" y="380" as="targetPoint" />
          </mxGeometry>
        </mxCell>
        <mxCell id="y51s2Xlw9aO2Pa95HNBr-25" value="&amp;lt;&amp;lt;extends&amp;gt;&amp;gt;" style="endArrow=open;startArrow=none;endFill=0;startFill=0;endSize=8;html=1;verticalAlign=bottom;dashed=1;labelBackgroundColor=none;rounded=0;" edge="1" parent="1" source="y51s2Xlw9aO2Pa95HNBr-14" target="y51s2Xlw9aO2Pa95HNBr-8">
          <mxGeometry width="160" relative="1" as="geometry">
            <mxPoint x="528" y="423" as="sourcePoint" />
            <mxPoint x="460" y="375" as="targetPoint" />
          </mxGeometry>
        </mxCell>
        <mxCell id="y51s2Xlw9aO2Pa95HNBr-26" value="&amp;lt;&amp;lt;extends&amp;gt;&amp;gt;" style="endArrow=open;startArrow=none;endFill=0;startFill=0;endSize=8;html=1;verticalAlign=bottom;dashed=1;labelBackgroundColor=none;rounded=0;" edge="1" parent="1" source="y51s2Xlw9aO2Pa95HNBr-14" target="y51s2Xlw9aO2Pa95HNBr-10">
          <mxGeometry width="160" relative="1" as="geometry">
            <mxPoint x="637" y="254" as="sourcePoint" />
            <mxPoint x="473" y="226" as="targetPoint" />
          </mxGeometry>
        </mxCell>
        <mxCell id="y51s2Xlw9aO2Pa95HNBr-28" value="&amp;lt;&amp;lt;include&amp;gt;&amp;gt;" style="endArrow=open;startArrow=none;endFill=0;startFill=0;endSize=8;html=1;verticalAlign=bottom;dashed=1;labelBackgroundColor=none;rounded=0;" edge="1" parent="1" source="y51s2Xlw9aO2Pa95HNBr-8" target="y51s2Xlw9aO2Pa95HNBr-15">
          <mxGeometry width="160" relative="1" as="geometry">
            <mxPoint x="637" y="254" as="sourcePoint" />
            <mxPoint x="473" y="226" as="targetPoint" />
          </mxGeometry>
        </mxCell>
        <mxCell id="y51s2Xlw9aO2Pa95HNBr-29" value="Choisir méthode&lt;div&gt;de génération&lt;/div&gt;" style="ellipse;whiteSpace=wrap;html=1;" vertex="1" parent="1">
          <mxGeometry x="480" y="100" width="140" height="50" as="geometry" />
        </mxCell>
        <mxCell id="y51s2Xlw9aO2Pa95HNBr-30" value="&amp;lt;&amp;lt;include&amp;gt;&amp;gt;" style="endArrow=open;startArrow=none;endFill=0;startFill=0;endSize=8;html=1;verticalAlign=bottom;dashed=1;labelBackgroundColor=none;rounded=0;" edge="1" parent="1" source="y51s2Xlw9aO2Pa95HNBr-8" target="y51s2Xlw9aO2Pa95HNBr-29">
          <mxGeometry width="160" relative="1" as="geometry">
            <mxPoint x="400" y="190" as="sourcePoint" />
            <mxPoint x="368" y="140" as="targetPoint" />
          </mxGeometry>
        </mxCell>
        <mxCell id="y51s2Xlw9aO2Pa95HNBr-31" value="Kruskal" style="ellipse;whiteSpace=wrap;html=1;" vertex="1" parent="1">
          <mxGeometry x="690" y="60" width="70" height="30" as="geometry" />
        </mxCell>
        <mxCell id="y51s2Xlw9aO2Pa95HNBr-32" value="Prims" style="ellipse;whiteSpace=wrap;html=1;" vertex="1" parent="1">
          <mxGeometry x="690" y="110" width="70" height="30" as="geometry" />
        </mxCell>
        <mxCell id="y51s2Xlw9aO2Pa95HNBr-33" value="RNG_DFS" style="ellipse;whiteSpace=wrap;html=1;" vertex="1" parent="1">
          <mxGeometry x="690" y="160" width="70" height="30" as="geometry" />
        </mxCell>
        <mxCell id="y51s2Xlw9aO2Pa95HNBr-34" value="" style="endArrow=block;endSize=16;endFill=0;html=1;rounded=0;" edge="1" parent="1" source="y51s2Xlw9aO2Pa95HNBr-33" target="y51s2Xlw9aO2Pa95HNBr-29">
          <mxGeometry width="160" relative="1" as="geometry">
            <mxPoint x="640" y="180" as="sourcePoint" />
            <mxPoint x="800" y="180" as="targetPoint" />
          </mxGeometry>
        </mxCell>
        <mxCell id="y51s2Xlw9aO2Pa95HNBr-35" value="" style="endArrow=block;endSize=16;endFill=0;html=1;rounded=0;" edge="1" parent="1" source="y51s2Xlw9aO2Pa95HNBr-32" target="y51s2Xlw9aO2Pa95HNBr-29">
          <mxGeometry width="160" relative="1" as="geometry">
            <mxPoint x="706" y="177" as="sourcePoint" />
            <mxPoint x="615" y="151" as="targetPoint" />
          </mxGeometry>
        </mxCell>
        <mxCell id="y51s2Xlw9aO2Pa95HNBr-36" value="" style="endArrow=block;endSize=16;endFill=0;html=1;rounded=0;" edge="1" parent="1" source="y51s2Xlw9aO2Pa95HNBr-31" target="y51s2Xlw9aO2Pa95HNBr-29">
          <mxGeometry width="160" relative="1" as="geometry">
            <mxPoint x="700" y="143" as="sourcePoint" />
            <mxPoint x="629" y="139" as="targetPoint" />
          </mxGeometry>
        </mxCell>
        <mxCell id="y51s2Xlw9aO2Pa95HNBr-39" value="Sauvegarder le labyrinthe" style="ellipse;whiteSpace=wrap;html=1;" vertex="1" parent="1">
          <mxGeometry x="250" y="330" width="140" height="50" as="geometry" />
        </mxCell>
        <mxCell id="y51s2Xlw9aO2Pa95HNBr-40" value="" style="endArrow=none;html=1;rounded=0;" edge="1" parent="1" source="y51s2Xlw9aO2Pa95HNBr-2" target="y51s2Xlw9aO2Pa95HNBr-39">
          <mxGeometry width="50" height="50" relative="1" as="geometry">
            <mxPoint x="220" y="294" as="sourcePoint" />
            <mxPoint x="344" y="324" as="targetPoint" />
          </mxGeometry>
        </mxCell>
        <mxCell id="y51s2Xlw9aO2Pa95HNBr-41" value="&amp;lt;&amp;lt;include&amp;gt;&amp;gt;" style="endArrow=open;startArrow=none;endFill=0;startFill=0;endSize=8;html=1;verticalAlign=bottom;dashed=1;labelBackgroundColor=none;rounded=0;" edge="1" parent="1" source="y51s2Xlw9aO2Pa95HNBr-12" target="y51s2Xlw9aO2Pa95HNBr-16">
          <mxGeometry width="160" relative="1" as="geometry">
            <mxPoint x="522" y="432" as="sourcePoint" />
            <mxPoint x="456" y="378" as="targetPoint" />
          </mxGeometry>
        </mxCell>
        <mxCell id="y51s2Xlw9aO2Pa95HNBr-45" value="&amp;lt;&amp;lt;extends&amp;gt;&amp;gt;" style="endArrow=open;startArrow=none;endFill=0;startFill=0;endSize=8;html=1;verticalAlign=bottom;dashed=1;labelBackgroundColor=none;rounded=0;" edge="1" parent="1" source="y51s2Xlw9aO2Pa95HNBr-39" target="y51s2Xlw9aO2Pa95HNBr-10">
          <mxGeometry width="160" relative="1" as="geometry">
            <mxPoint x="564" y="434" as="sourcePoint" />
            <mxPoint x="444" y="362" as="targetPoint" />
          </mxGeometry>
        </mxCell>
        <mxCell id="y51s2Xlw9aO2Pa95HNBr-46" value="&amp;lt;&amp;lt;extends&amp;gt;&amp;gt;" style="endArrow=open;startArrow=none;endFill=0;startFill=0;endSize=8;html=1;verticalAlign=bottom;dashed=1;labelBackgroundColor=none;rounded=0;" edge="1" parent="1" source="y51s2Xlw9aO2Pa95HNBr-39" target="y51s2Xlw9aO2Pa95HNBr-8">
          <mxGeometry width="160" relative="1" as="geometry">
            <mxPoint x="570" y="560" as="sourcePoint" />
            <mxPoint x="570" y="420" as="targetPoint" />
          </mxGeometry>
        </mxCell>
        <mxCell id="y51s2Xlw9aO2Pa95HNBr-47" value="&amp;lt;&amp;lt;extends&amp;gt;&amp;gt;" style="endArrow=open;startArrow=none;endFill=0;startFill=0;endSize=8;html=1;verticalAlign=bottom;dashed=1;labelBackgroundColor=none;rounded=0;" edge="1" parent="1" source="y51s2Xlw9aO2Pa95HNBr-12" target="y51s2Xlw9aO2Pa95HNBr-10">
          <mxGeometry width="160" relative="1" as="geometry">
            <mxPoint x="559" y="560" as="sourcePoint" />
            <mxPoint x="421" y="240" as="targetPoint" />
          </mxGeometry>
        </mxCell>
        <mxCell id="y51s2Xlw9aO2Pa95HNBr-48" value="&amp;lt;&amp;lt;extends&amp;gt;&amp;gt;" style="endArrow=open;startArrow=none;endFill=0;startFill=0;endSize=8;html=1;verticalAlign=bottom;dashed=1;labelBackgroundColor=none;rounded=0;" edge="1" parent="1" source="y51s2Xlw9aO2Pa95HNBr-12" target="y51s2Xlw9aO2Pa95HNBr-8">
          <mxGeometry width="160" relative="1" as="geometry">
            <mxPoint x="374" y="562" as="sourcePoint" />
            <mxPoint x="529" y="410" as="targetPoint" />
          </mxGeometry>
        </mxCell>
        <mxCell id="y51s2Xlw9aO2Pa95HNBr-49" value="Condition : si il y a un labyrinthe en mémoire" style="shape=note2;boundedLbl=1;whiteSpace=wrap;html=1;size=25;verticalAlign=top;align=center;" vertex="1" parent="1">
          <mxGeometry x="570" y="460" width="200" height="60" as="geometry" />
        </mxCell>
        <mxCell id="y51s2Xlw9aO2Pa95HNBr-50" value="" style="endArrow=none;dashed=1;html=1;rounded=0;" edge="1" parent="1" target="y51s2Xlw9aO2Pa95HNBr-49">
          <mxGeometry width="50" height="50" relative="1" as="geometry">
            <mxPoint x="510" y="440" as="sourcePoint" />
            <mxPoint x="765" y="402" as="targetPoint" />
          </mxGeometry>
        </mxCell>
        <mxCell id="y51s2Xlw9aO2Pa95HNBr-53" value="" style="endArrow=none;dashed=1;html=1;rounded=0;" edge="1" parent="1" target="y51s2Xlw9aO2Pa95HNBr-49">
          <mxGeometry width="50" height="50" relative="1" as="geometry">
            <mxPoint x="420" y="380" as="sourcePoint" />
            <mxPoint x="676" y="500" as="targetPoint" />
          </mxGeometry>
        </mxCell>
        <mxCell id="y51s2Xlw9aO2Pa95HNBr-54" value="" style="endArrow=none;dashed=1;html=1;rounded=0;" edge="1" parent="1" target="y51s2Xlw9aO2Pa95HNBr-49">
          <mxGeometry width="50" height="50" relative="1" as="geometry">
            <mxPoint x="440" y="340" as="sourcePoint" />
            <mxPoint x="697" y="500" as="targetPoint" />
          </mxGeometry>
        </mxCell>
        <mxCell id="y51s2Xlw9aO2Pa95HNBr-55" value="" style="endArrow=none;dashed=1;html=1;rounded=0;" edge="1" parent="1" target="y51s2Xlw9aO2Pa95HNBr-49">
          <mxGeometry width="50" height="50" relative="1" as="geometry">
            <mxPoint x="360" y="280" as="sourcePoint" />
            <mxPoint x="717" y="500" as="targetPoint" />
          </mxGeometry>
        </mxCell>
        <mxCell id="y51s2Xlw9aO2Pa95HNBr-56" value="RightHand" style="ellipse;whiteSpace=wrap;html=1;" vertex="1" parent="1">
          <mxGeometry x="780" y="590" width="140" height="50" as="geometry" />
        </mxCell>
        <mxCell id="y51s2Xlw9aO2Pa95HNBr-57" value="" style="endArrow=block;endSize=16;endFill=0;html=1;rounded=0;" edge="1" parent="1" source="y51s2Xlw9aO2Pa95HNBr-56" target="y51s2Xlw9aO2Pa95HNBr-16">
          <mxGeometry width="160" relative="1" as="geometry">
            <mxPoint x="706" y="177" as="sourcePoint" />
            <mxPoint x="615" y="151" as="targetPoint" />
          </mxGeometry>
        </mxCell>
        <mxCell id="y51s2Xlw9aO2Pa95HNBr-59" value="V 1.0" style="text;html=1;align=center;verticalAlign=middle;resizable=0;points=[];autosize=1;strokeColor=none;fillColor=none;" vertex="1" parent="1">
          <mxGeometry x="240" y="-25" width="50" height="30" as="geometry" />
        </mxCell>
      </root>
    </mxGraphModel>
  </diagram>
</mxfile>
